<svg width="82" height="48" viewBox="0 0 82 48" fill="none" xmlns="http://www.w3.org/2000/svg">
<path d="M47.5186 15.681C47.5186 17.0024 47.1267 18.2941 46.3926 19.3928C45.6585 20.4915 44.6151 21.3478 43.3943 21.8535C42.1735 22.3591 40.8301 22.4914 39.5342 22.2337C38.2382 21.9759 37.0477 21.3396 36.1134 20.4052C35.179 19.4708 34.5427 18.2804 34.2849 16.9844C34.0271 15.6884 34.1594 14.3451 34.6651 13.1243C35.1708 11.9035 36.0271 10.8601 37.1258 10.126C38.2245 9.39183 39.5162 9 40.8376 9C42.6095 9 44.3088 9.70389 45.5617 10.9568C46.8147 12.2098 47.5186 13.9091 47.5186 15.681ZM45.8483 29.043H35.8268C33.6119 29.043 31.4877 29.9229 29.9216 31.4891C28.3554 33.0552 27.4755 35.1794 27.4755 37.3943C27.4755 37.8373 27.6515 38.2621 27.9647 38.5754C28.278 38.8886 28.7028 39.0646 29.1458 39.0646H52.5293C52.9723 39.0646 53.3971 38.8886 53.7104 38.5754C54.0236 38.2621 54.1996 37.8373 54.1996 37.3943C54.1996 35.1794 53.3197 33.0552 51.7536 31.4891C50.1874 29.9229 48.0632 29.043 45.8483 29.043Z" stroke="#FF0000" stroke-width="2" stroke-linecap="round" stroke-linejoin="round"/>
<path d="M55 22.6745C55 23.5975 55.283 24.4998 55.8132 25.2672C56.3434 26.0346 57.097 26.6328 57.9787 26.986C58.8603 27.3392 59.8305 27.4316 60.7665 27.2515C61.7025 27.0715 62.5623 26.627 63.2371 25.9744C63.9119 25.3217 64.3715 24.4902 64.5576 23.585C64.7438 22.6797 64.6483 21.7414 64.2831 20.8887C63.9179 20.036 63.2994 19.3071 62.5059 18.7943C61.7124 18.2816 60.7795 18.0079 59.8252 18.0079C58.5455 18.0079 57.3182 18.4995 56.4133 19.3747C55.5084 20.2499 55 21.4369 55 22.6745Z" stroke="#FF0000" stroke-width="1.5" stroke-linecap="round" stroke-linejoin="round"/>
<path d="M62.2377 39.0079H68.2692C68.5891 39.0079 68.896 38.885 69.1222 38.6662C69.3484 38.4474 69.4755 38.1506 69.4755 37.8412C69.4755 36.2941 68.84 34.8104 67.7089 33.7164C66.5778 32.6225 65.0437 32.0079 63.444 32.0079H59.8251" stroke="#FF0000" stroke-width="1.5" stroke-linecap="round" stroke-linejoin="round"/>
<path d="M26.4755 22.6745C26.4755 23.5975 26.1925 24.4998 25.6623 25.2672C25.1321 26.0346 24.3785 26.6328 23.4969 26.986C22.6152 27.3392 21.645 27.4316 20.709 27.2515C19.773 27.0715 18.9132 26.627 18.2384 25.9744C17.5636 25.3217 17.1041 24.4902 16.9179 23.585C16.7317 22.6797 16.8273 21.7414 17.1925 20.8887C17.5577 20.036 18.1761 19.3071 18.9696 18.7943C19.7631 18.2816 20.696 18.0079 21.6503 18.0079C22.9301 18.0079 24.1574 18.4995 25.0623 19.3747C25.9672 20.2499 26.4755 21.4369 26.4755 22.6745Z" stroke="#FF0000" stroke-width="1.5" stroke-linecap="round" stroke-linejoin="round"/>
<path d="M19.2378 39.0079H13.2063C12.8864 39.0079 12.5795 38.885 12.3533 38.6662C12.1271 38.4474 12 38.1506 12 37.8412C12 36.2941 12.6355 34.8104 13.7666 33.7164C14.8977 32.6225 16.4318 32.0079 18.0315 32.0079H21.6504" stroke="#FF0000" stroke-width="1.5" stroke-linecap="round" stroke-linejoin="round"/>
</svg>
