<svg width="52" height="52" viewBox="0 0 52 52" fill="none" xmlns="http://www.w3.org/2000/svg">
<path d="M7.12833 31.8283L10.1617 28.795C10.5667 28.398 11.1112 28.1756 11.6783 28.1756C12.2455 28.1756 12.79 28.398 13.195 28.795L23.8333 39.4333V45.5H17.7667L7.12833 34.8617C6.73134 34.4567 6.50898 33.9121 6.50898 33.345C6.50898 32.7779 6.73134 32.2333 7.12833 31.8283ZM19.5 15.1667C19.5 16.8808 20.0083 18.5564 20.9606 19.9816C21.9129 21.4068 23.2665 22.5177 24.8501 23.1736C26.4337 23.8296 28.1763 24.0012 29.8575 23.6668C31.5386 23.3324 33.0829 22.507 34.2949 21.2949C35.507 20.0829 36.3324 18.5386 36.6668 16.8574C37.0012 15.1763 36.8296 13.4337 36.1736 11.8501C35.5177 10.2665 34.4068 8.9129 32.9816 7.9606C31.5564 7.00829 29.8808 6.5 28.1667 6.5C25.8681 6.5 23.6637 7.41309 22.0384 9.03841C20.4131 10.6637 19.5 12.8681 19.5 15.1667Z" stroke="#FF0000" stroke-width="3" stroke-linecap="round" stroke-linejoin="round"/>
<path d="M32.5 45.5H43.3333C43.908 45.5 44.4591 45.2717 44.8654 44.8654C45.2717 44.4591 45.5 43.908 45.5 43.3333C45.5 40.4602 44.3586 37.7047 42.327 35.673C40.2953 33.6414 37.5398 32.5 34.6667 32.5H28.1667" stroke="#FF0000" stroke-width="3" stroke-linecap="round" stroke-linejoin="round"/>
</svg>
