<svg width="52" height="52" viewBox="0 0 52 52" fill="none" xmlns="http://www.w3.org/2000/svg">
<path d="M7.12815 31.8283L10.1615 28.795C10.5665 28.398 11.111 28.1756 11.6781 28.1756C12.2453 28.1756 12.7898 28.398 13.1948 28.795L23.8331 39.4333V45.5H17.7665L7.12815 34.8617C6.73115 34.4567 6.50879 33.9121 6.50879 33.345C6.50879 32.7779 6.73115 32.2333 7.12815 31.8283ZM19.4998 15.1667C19.4998 16.8808 20.0081 18.5564 20.9604 19.9816C21.9127 21.4068 23.2663 22.5177 24.8499 23.1736C26.4335 23.8296 28.1761 24.0012 29.8573 23.6668C31.5384 23.3324 33.0827 22.507 34.2947 21.2949C35.5068 20.0829 36.3322 18.5386 36.6666 16.8574C37.001 15.1763 36.8294 13.4337 36.1734 11.8501C35.5175 10.2665 34.4066 8.9129 32.9814 7.9606C31.5562 7.00829 29.8806 6.5 28.1665 6.5C25.8679 6.5 23.6635 7.41309 22.0382 9.03841C20.4129 10.6637 19.4998 12.8681 19.4998 15.1667Z" stroke="#FF0000" stroke-width="3" stroke-linecap="round" stroke-linejoin="round"/>
<path d="M32.5003 45.5H43.3337C43.9083 45.5 44.4594 45.2717 44.8657 44.8654C45.2721 44.4591 45.5003 43.908 45.5003 43.3333C45.5003 40.4602 44.359 37.7047 42.3273 35.673C40.2957 33.6414 37.5402 32.5 34.667 32.5H28.167" stroke="#FF0000" stroke-width="3" stroke-linecap="round" stroke-linejoin="round"/>
</svg>
