<svg width="52" height="52" viewBox="0 0 52 52" fill="none" xmlns="http://www.w3.org/2000/svg">
<path d="M28.1667 32.5H17.3333C14.4602 32.5 11.7047 33.6414 9.67301 35.673C7.64137 37.7047 6.5 40.4602 6.5 43.3333C6.5 43.908 6.72827 44.4591 7.1346 44.8654C7.54093 45.2717 8.09203 45.5 8.66667 45.5H32.5" stroke="#FF0000" stroke-width="3" stroke-linecap="round" stroke-linejoin="round"/>
<path d="M36.8333 36.8333H45.5M41.1667 32.5V41.1667M32.5 15.1667C32.5 16.8808 31.9917 18.5564 31.0394 19.9816C30.0871 21.4068 28.7336 22.5177 27.1499 23.1736C25.5663 23.8296 23.8237 24.0012 22.1426 23.6668C20.4614 23.3324 18.9171 22.507 17.7051 21.2949C16.493 20.0829 15.6676 18.5386 15.3332 16.8574C14.9988 15.1763 15.1704 13.4337 15.8264 11.8501C16.4823 10.2665 17.5932 8.9129 19.0184 7.9606C20.4436 7.00829 22.1192 6.5 23.8333 6.5C26.1319 6.5 28.3363 7.41309 29.9616 9.03841C31.5869 10.6637 32.5 12.8681 32.5 15.1667Z" stroke="#FF0000" stroke-width="3" stroke-linecap="round" stroke-linejoin="round"/>
</svg>
