<svg width="49" height="49" viewBox="0 0 49 49" fill="none" xmlns="http://www.w3.org/2000/svg">
<path d="M34.5 24.5H14.5M24.5 14.5V34.5M47 24.5C47 28.9501 45.6804 33.3002 43.2081 37.0003C40.7357 40.7004 37.2217 43.5843 33.1104 45.2873C28.999 46.9903 24.4751 47.4358 20.1105 46.5677C15.7459 45.6995 11.7368 43.5566 8.59011 40.4099C5.44343 37.2632 3.30051 33.2541 2.43234 28.8895C1.56417 24.525 2.00975 20.001 3.71272 15.8896C5.41569 11.7783 8.29957 8.26427 11.9997 5.79193C15.6998 3.3196 20.0499 2 24.5 2C30.4674 2 36.1903 4.37053 40.4099 8.5901C44.6295 12.8097 47 18.5326 47 24.5Z" stroke="#FF0000" stroke-width="4" stroke-linecap="round" stroke-linejoin="round"/>
</svg>
