<svg width="70" height="78" viewBox="0 0 70 78" fill="none" xmlns="http://www.w3.org/2000/svg">
<path d="M51 19C51 22.1645 50.0616 25.2579 48.3035 27.8891C46.5454 30.5203 44.0466 32.5711 41.1229 33.7821C38.1993 34.9931 34.9823 35.3099 31.8786 34.6926C28.7749 34.0752 25.9239 32.5513 23.6863 30.3137C21.4487 28.0761 19.9248 25.2251 19.3074 22.1214C18.6901 19.0177 19.0069 15.8007 20.2179 12.8771C21.4289 9.95345 23.4797 7.45459 26.1109 5.69649C28.7421 3.93838 31.8355 3 35 3C39.2435 3 43.3131 4.68571 46.3137 7.68629C49.3143 10.6869 51 14.7565 51 19ZM47 51H23C17.6957 51 12.6086 53.1071 8.85786 56.8579C5.10714 60.6086 3 65.6957 3 71C3 72.0609 3.42143 73.0783 4.17157 73.8284C4.92172 74.5786 5.93913 75 7 75H63C64.0609 75 65.0783 74.5786 65.8284 73.8284C66.5786 73.0783 67 72.0609 67 71C67 65.6957 64.8929 60.6086 61.1421 56.8579C57.3914 53.1071 52.3043 51 47 51Z" stroke="#FF0000" stroke-width="5" stroke-linecap="round" stroke-linejoin="round"/>
</svg>
