<svg width="52" height="52" viewBox="0 0 52 52" fill="none" xmlns="http://www.w3.org/2000/svg">
<path d="M15.167 28.1667L19.5003 32.5001L23.8337 28.1667" stroke="#FF0000" stroke-width="3" stroke-linecap="round" stroke-linejoin="round"/>
<path d="M36.8337 21.6666L32.5003 17.3333L28.167 21.6666" stroke="#FF0000" stroke-width="3" stroke-linecap="round" stroke-linejoin="round"/>
<path d="M19.5 17.3333V32.5M32.5 32.5V17.3333M45.5 26C45.5 29.8567 44.3564 33.6269 42.2137 36.8336C40.071 40.0404 37.0255 42.5397 33.4623 44.0156C29.8992 45.4916 25.9784 45.8777 22.1957 45.1253C18.4131 44.3729 14.9386 42.5157 12.2114 39.7886C9.4843 37.0615 7.62711 33.5869 6.8747 29.8043C6.12228 26.0216 6.50845 22.1008 7.98436 18.5377C9.46027 14.9745 11.9596 11.929 15.1664 9.78634C18.3731 7.64366 22.1433 6.5 26 6.5C31.1717 6.5 36.1316 8.55446 39.7886 12.2114C43.4455 15.8684 45.5 20.8283 45.5 26Z" stroke="#FF0000" stroke-width="3" stroke-linecap="round" stroke-linejoin="round"/>
</svg>
