<svg width="40" height="40" viewBox="0 0 40 40" fill="none" xmlns="http://www.w3.org/2000/svg">
<path d="M10 22L14 26L18 22" stroke="#FF0000" stroke-width="3" stroke-linecap="round" stroke-linejoin="round"/>
<path d="M30 16L26 12L22 16" stroke="#FF0000" stroke-width="3" stroke-linecap="round" stroke-linejoin="round"/>
<path d="M14 12V26M26 26V12M38 20C38 23.5601 36.9443 27.0402 34.9664 30.0003C32.9886 32.9603 30.1774 35.2675 26.8883 36.6298C23.5992 37.9922 19.98 38.3487 16.4884 37.6541C12.9967 36.9596 9.78942 35.2453 7.27207 32.7279C4.75473 30.2106 3.04039 27.0033 2.34586 23.5116C1.65132 20.02 2.00778 16.4008 3.37016 13.1117C4.73254 9.82263 7.03964 7.01141 9.99973 5.03355C12.9598 3.05568 16.4399 2 20 2C24.7739 2 29.3523 3.89642 32.7279 7.27208C36.1036 10.6477 38 15.2261 38 20Z" stroke="#FF0000" stroke-width="3" stroke-linecap="round" stroke-linejoin="round"/>
</svg>
