<svg width="43" height="43" viewBox="0 0 43 43" fill="none" xmlns="http://www.w3.org/2000/svg">
<path d="M28 28L15 15M15 28L28 15M41 21.5C41 25.3567 39.8563 29.1269 37.7137 32.3336C35.571 35.5404 32.5255 38.0397 28.9623 39.5156C25.3992 40.9916 21.4784 41.3777 17.6957 40.6253C13.9131 39.8729 10.4385 38.0157 7.71143 35.2886C4.9843 32.5614 3.12711 29.0869 2.3747 25.3043C1.62228 21.5216 2.00845 17.6008 3.48436 14.0377C4.96027 10.4745 7.45963 7.42903 10.6664 5.28634C13.8731 3.14366 17.6433 2 21.5 2C26.6717 2 31.6316 4.05446 35.2886 7.71142C38.9455 11.3684 41 16.3283 41 21.5Z" stroke="#FF0000" stroke-width="4" stroke-linecap="round" stroke-linejoin="round"/>
</svg>
