<svg width="48" height="48" viewBox="0 0 48 48" fill="none" xmlns="http://www.w3.org/2000/svg">
<g clip-path="url(#clip0_468_490)">
<path d="M17 12H42M17 24H42M17 36H42" stroke="#FF0000" stroke-width="2.5" stroke-linecap="round" stroke-linejoin="round"/>
<path d="M8.9982 25.99H10.6882C10.8749 25.99 11.0215 26.0433 11.1282 26.15C11.2349 26.25 11.2882 26.3667 11.2882 26.5C11.2882 26.6333 11.2349 26.75 11.1282 26.85C11.0282 26.95 10.8849 27 10.6982 27H6.9882C6.81487 26.9867 6.67487 26.9267 6.5682 26.82C6.46154 26.7067 6.4082 26.58 6.4082 26.44C6.4082 26.3667 6.4282 26.2933 6.4682 26.22C6.5082 26.1467 6.56487 26.08 6.6382 26.02L9.4282 23.83C9.61487 23.6967 9.76154 23.5333 9.8682 23.34C9.97487 23.14 10.0282 22.93 10.0282 22.71C10.0282 22.6633 10.0215 22.6 10.0082 22.52C9.9682 22.2 9.8382 21.9567 9.6182 21.79C9.3982 21.6167 9.13154 21.53 8.8182 21.53C8.51154 21.53 8.2482 21.6133 8.0282 21.78C7.81487 21.9467 7.6782 22.1733 7.6182 22.46C7.5982 22.6067 7.53487 22.72 7.4282 22.8C7.3282 22.88 7.2082 22.92 7.0682 22.92C6.9082 22.92 6.7682 22.8667 6.6482 22.76C6.5282 22.6467 6.4782 22.5 6.4982 22.32C6.5782 21.7267 6.82487 21.28 7.2382 20.98C7.6582 20.68 8.18487 20.53 8.8182 20.53C9.20487 20.53 9.56487 20.6033 9.8982 20.75C10.2382 20.8967 10.5182 21.11 10.7382 21.39C10.9582 21.67 11.0882 22 11.1282 22.38C11.1415 22.5133 11.1482 22.61 11.1482 22.67C11.1482 23.4233 10.8115 24.0633 10.1382 24.59L8.2982 26.02L8.9982 25.99Z" fill="#EC1D24"/>
<path d="M9.09379 8.75C9.16046 8.67667 9.24046 8.62333 9.33379 8.59C9.42712 8.55 9.51712 8.53 9.60379 8.53C9.77046 8.53 9.91046 8.57667 10.0238 8.67C10.1371 8.76333 10.1938 8.89 10.1938 9.05V14.62C10.1938 14.7733 10.1371 14.8933 10.0238 14.98C9.91712 15.06 9.79046 15.1 9.64379 15.1C9.49046 15.1 9.35712 15.06 9.24379 14.98C9.13712 14.8933 9.08379 14.7733 9.08379 14.62V10.58L8.65379 11.15C8.54046 11.31 8.38712 11.39 8.19379 11.39C8.06046 11.39 7.94046 11.3333 7.83379 11.22C7.73379 11.1067 7.68379 10.9767 7.68379 10.83C7.68379 10.73 7.71046 10.64 7.76379 10.56L9.09379 8.75Z" fill="#EC1D24"/>
<path d="M6.91309 36.63C7.04642 36.63 7.16642 36.67 7.27309 36.75C7.37975 36.83 7.43642 36.9333 7.44309 37.06C7.48975 37.4667 7.63642 37.7433 7.88309 37.89C8.12975 38.0367 8.43309 38.11 8.79309 38.11C9.15309 38.11 9.44642 37.9867 9.67309 37.74C9.89975 37.4867 10.0131 37.1667 10.0131 36.78C10.0131 36.4467 9.91642 36.17 9.72309 35.95C9.53642 35.73 9.29975 35.62 9.01309 35.62C8.87309 35.62 8.75309 35.65 8.65309 35.71C8.54642 35.7767 8.43975 35.81 8.33309 35.81C8.17309 35.81 8.03642 35.7533 7.92309 35.64C7.81642 35.5267 7.76309 35.3933 7.76309 35.24C7.76309 35.0933 7.82642 34.9567 7.95309 34.83L9.26309 33.62H7.08309C6.90975 33.62 6.77642 33.5733 6.68309 33.48C6.58975 33.38 6.54309 33.2633 6.54309 33.13C6.54309 32.99 6.58975 32.8733 6.68309 32.78C6.77642 32.68 6.90975 32.63 7.08309 32.63H10.4231C10.5898 32.63 10.7331 32.6833 10.8531 32.79C10.9798 32.89 11.0431 33.0133 11.0431 33.16C11.0431 33.2133 11.0198 33.2833 10.9731 33.37C10.9264 33.45 10.8698 33.5233 10.8031 33.59C10.4964 33.87 10.0498 34.2633 9.46309 34.77C9.81642 34.8033 10.1198 34.9167 10.3731 35.11C10.6264 35.2967 10.8164 35.5367 10.9431 35.83C11.0764 36.1233 11.1431 36.4367 11.1431 36.77C11.1431 37.2233 11.0431 37.6267 10.8431 37.98C10.6498 38.3333 10.3764 38.61 10.0231 38.81C9.66975 39.0033 9.26309 39.1 8.80309 39.1C8.12975 39.1 7.56975 38.95 7.12309 38.65C6.67642 38.3433 6.41642 37.86 6.34309 37.2C6.34975 37.04 6.40975 36.9067 6.52309 36.8C6.64309 36.6867 6.77309 36.63 6.91309 36.63Z" fill="#EC1D24"/>
</g>
<defs>
<clipPath id="clip0_468_490">
<rect width="48" height="48" rx="5" fill="white"/>
</clipPath>
</defs>
</svg>
