<svg width="48" height="48" viewBox="0 0 48 48" fill="none" xmlns="http://www.w3.org/2000/svg">
<path d="M13.9998 24H21.9998M10.8798 8.3L40.1798 22.3C40.518 22.4638 40.8031 22.7195 41.0027 23.0378C41.2022 23.3562 41.3081 23.7243 41.3081 24.1C41.3081 24.4757 41.2022 24.8438 41.0027 25.1622C40.8031 25.4805 40.518 25.7362 40.1798 25.9L10.8798 39.9C10.4909 40.1254 10.0373 40.2132 9.59234 40.1493C9.14736 40.0853 8.73691 39.8733 8.42721 39.5474C8.11752 39.2215 7.92665 38.8008 7.88539 38.3531C7.84414 37.9055 7.95491 37.457 8.19983 37.08L13.6398 24.82C13.7487 24.5603 13.8048 24.2816 13.8048 24C13.8048 23.7184 13.7487 23.4397 13.6398 23.18L8.19983 10.92C8.03462 10.5472 7.98731 10.1328 8.06423 9.73239C8.14115 9.33196 8.33863 8.9646 8.63021 8.67955C8.92178 8.3945 9.29352 8.20539 9.69559 8.13755C10.0977 8.06972 10.5109 8.1264 10.8798 8.3Z" stroke="#FF0000" stroke-width="3" stroke-linecap="round" stroke-linejoin="round"/>
</svg>
